<svg data-v-423bf9ae="" xmlns="http://www.w3.org/2000/svg" viewBox="0 0 425 90" class="iconLeftSlogan"><!----><!----><!----><g data-v-423bf9ae="" id="b1aa0da7-a687-4aad-81a5-3cccb0d2561a" fill="#ffffff" transform="matrix(4.889975367689235,0,0,4.889975367689235,111.40217581494224,5.965769373228451)"><path d="M4.16 8.50L4.19 1.05L0.88 1.05C0.88 1.05 0.95 3.78 0.95 5.91C0.95 7.42 0.84 10.79 0.84 10.79L7.67 10.79C7.70 9.77 7.90 8.39 7.90 8.39ZM13.12 2.95C10.28 2.95 8.53 4.48 8.53 6.97C8.53 9.42 10.28 11.05 13.12 11.05C15.99 11.05 17.71 9.42 17.71 6.97C17.71 4.48 15.99 2.95 13.12 2.95ZM11.80 6.92C11.80 5.71 12.11 5.00 13.05 5.00C14.10 5.00 14.42 6.02 14.42 7.04C14.42 8.05 14.18 8.95 13.13 8.95C12.19 8.95 11.80 8.11 11.80 6.92ZM24.56 2.95C23.10 2.95 22.47 4.61 22.26 5.28C22.27 4.89 22.25 3.67 22.26 3.21L19.19 3.21C19.21 3.82 19.22 4.42 19.22 4.94C19.22 7.73 19.11 10.79 19.11 10.79L22.46 10.79C22.39 9.91 22.33 8.64 22.33 7.63C22.33 6.26 22.82 5.98 23.49 5.98C24.07 5.96 24.67 6.20 25.05 6.40L25.68 3.09C25.26 3.00 24.88 2.95 24.56 2.95ZM33.14 8.39C32.48 8.74 31.56 9.13 30.55 9.13C29.54 9.13 29.30 8.39 29.30 7.69C31.12 8.18 33.52 7.50 33.52 5.52C33.52 3.92 32.30 2.95 30.11 2.95C27.68 2.95 25.96 4.24 25.96 7.01C25.96 9.95 27.73 11.05 30.17 11.05C31.70 11.05 33.00 10.74 33.75 10.19ZM30.48 4.75C30.88 4.75 31.11 4.96 31.11 5.46C31.11 6.79 29.88 6.79 29.26 6.65C29.30 5.66 29.64 4.75 30.48 4.75ZM38.26 10.79C38.19 7.87 38.21 7.81 38.21 5.00C38.21 2.93 38.42-0.97 38.42-0.97C38.42-0.97 36.44-0.88 34.87-0.97C34.87-0.97 35.01 2.79 35.01 4.94C35.01 7.73 34.92 10.79 34.92 10.79ZM47.00 8.39C46.34 8.74 45.42 9.13 44.41 9.13C43.40 9.13 43.16 8.39 43.16 7.69C44.98 8.18 47.38 7.50 47.38 5.52C47.38 3.92 46.16 2.95 43.97 2.95C41.54 2.95 39.82 4.24 39.82 7.01C39.82 9.95 41.59 11.05 44.03 11.05C45.56 11.05 46.86 10.74 47.61 10.19ZM44.34 4.75C44.74 4.75 44.97 4.96 44.97 5.46C44.97 6.79 43.74 6.79 43.12 6.65C43.16 5.66 43.50 4.75 44.34 4.75ZM52.29 0.56C52.29-0.42 51.49-1.22 50.51-1.22C49.53-1.22 48.73-0.42 48.73 0.56C48.73 1.55 49.53 2.34 50.51 2.34C51.49 2.34 52.29 1.55 52.29 0.56ZM52.15 10.79C52.08 7.87 52.09 8.48 52.09 7C52.09 5.40 52.26 3.21 52.26 3.21C52.26 3.21 50.33 3.29 48.76 3.21C48.76 3.21 48.90 5.38 48.90 6.93C48.90 8.61 48.80 10.79 48.80 10.79ZM53.96 1.05L54.10 5.22L55.85 5.22L55.94 1.05ZM63.84 3.79C63.84 3.79 62.68 2.95 60.80 2.95C59.02 2.95 57.44 3.79 57.44 5.46C57.44 7.98 60.89 7.77 60.89 8.74C60.89 8.96 60.73 9.14 60.42 9.14C59.30 9.14 57.68 8.04 57.68 8.04L56.92 9.73C56.92 9.73 58.23 11.05 60.86 11.05C62.82 11.05 64.12 9.98 64.12 8.47C64.12 5.91 60.44 6.15 60.44 5.28C60.44 5.04 60.59 4.82 60.93 4.82C61.81 4.82 63.25 5.54 63.25 5.54Z"></path></g><!----><g data-v-423bf9ae="" id="fc2489e3-7d1e-42c0-993b-113578304372" transform="matrix(1.3038376206837972,0,0,1.3038376206837972,-16.818335503367763,-19.70522941245406)" stroke="none" fill="#4B2154"><path d="M82.531 32.202C76.513 21.503 71.498 15.486 49.32 15.486c-37.111 0-39.448 40.454-33.382 49.589 2.856 4.3 9.251 6.897 17.024 8.252l-5.476 7.621a1.5 1.5 0 0 0 2.436 1.75l6.372-8.868c3.929.491 8.112.701 12.308.686v8.497a1.5 1.5 0 0 0 3 0V74.47c4.183-.12 8.312-.456 12.162-.955l8.994 9.347a1.497 1.497 0 0 0 2.121.041 1.5 1.5 0 0 0 .041-2.121l-7.504-7.798c6.913-1.14 12.508-2.813 15.116-4.676 5.508-3.933 5.411-26.486-.001-36.106zM35.51 62.627c-4.735 0-8.573-2.396-8.573-5.35s3.838-5.349 8.573-5.349 8.573 2.395 8.573 5.349-3.838 5.35-8.573 5.35zm32.43 0c-4.735 0-8.573-2.396-8.573-5.35s3.838-5.349 8.573-5.349 8.573 2.395 8.573 5.349-3.838 5.35-8.573 5.35z"></path></g><!----><g data-v-423bf9ae="" id="fabab1e5-e45b-43da-80f7-9ecd782a0bfc" fill="#ffffff" transform="matrix(1.2425967354919794,0,0,1.2425967354919794,114.10561978310206,57.39054615451286)"><path d="M8.93 2.21L5.67 6.61L2.35 2.21L1.13 2.21L1.13 11.48L2.18 11.48L2.18 3.81L5.67 8.22L9.10 3.81L9.10 11.48L10.15 11.48L10.15 2.21ZM23.53 2.10C20.72 2.10 18.83 4.21 18.83 6.85C18.83 9.48 20.72 11.59 23.53 11.59C26.35 11.59 28.24 9.48 28.24 6.85C28.24 4.21 26.35 2.10 23.53 2.10ZM23.53 10.57C21.28 10.57 19.88 8.93 19.88 6.85C19.88 4.76 21.28 3.12 23.53 3.12C25.79 3.12 27.19 4.76 27.19 6.85C27.19 8.93 25.79 10.57 23.53 10.57ZM43.86 2.21L43.86 10.01L38.14 2.21L36.92 2.21L36.92 11.48L37.97 11.48L37.97 3.65L43.69 11.48L44.91 11.48L44.91 2.21ZM54.80 4.65C54.80 4.03 55.16 3.08 57.26 3.08C58.95 3.08 59.74 3.82 59.85 4.75L60.93 4.75C60.84 3.36 59.72 2.10 57.26 2.10C54.94 2.10 53.77 3.15 53.77 4.66C53.77 7.84 60.12 6.69 60.12 8.96C60.12 10.05 59.14 10.60 57.57 10.60C55.96 10.60 54.66 10.05 54.59 8.71L53.49 8.71C53.63 10.37 54.75 11.59 57.50 11.59C59.78 11.59 61.17 10.64 61.17 8.92C61.17 5.68 54.80 6.80 54.80 4.65ZM76.37 2.21L68.85 2.21L68.85 3.22L72.09 3.22L72.09 11.48L73.14 11.48L73.14 3.22L76.37 3.22ZM91.52 3.22L91.52 2.21L84.70 2.21L84.70 11.48L91.52 11.48L91.52 10.47L85.75 10.47L85.75 7.35L90.90 7.35L90.90 6.33L85.75 6.33L85.75 3.22ZM101.26 7.92L104.48 7.92L106.72 11.48L107.97 11.48L105.53 7.74C106.57 7.50 107.77 6.90 107.77 5.11C107.77 3.35 106.55 2.21 104.65 2.21L100.21 2.21L100.21 11.48L101.26 11.48ZM101.26 3.21L104.52 3.21C105.84 3.21 106.72 3.93 106.72 5.11C106.72 6.55 105.46 6.93 104.47 6.93L101.26 6.93ZM134.36 2.21L131.10 6.61L127.78 2.21L126.56 2.21L126.56 11.48L127.61 11.48L127.61 3.81L131.10 8.22L134.53 3.81L134.53 11.48L135.58 11.48L135.58 2.21ZM149.00 2.21L147.69 2.21L143.75 11.48L144.91 11.48L146.05 8.79L150.64 8.79L151.77 11.48L152.94 11.48ZM146.45 7.83L148.34 3.30L150.23 7.83ZM168.80 2.21L167.31 2.21L162.16 7.04L162.16 2.21L161.11 2.21L161.11 11.48L162.16 11.48L162.16 8.44L164.08 6.65L167.71 11.48L169.02 11.48L164.85 5.94ZM183.90 3.22L183.90 2.21L177.09 2.21L177.09 11.48L183.90 11.48L183.90 10.47L178.14 10.47L178.14 7.35L183.29 7.35L183.29 6.33L178.14 6.33L178.14 3.22ZM193.65 7.92L196.87 7.92L199.11 11.48L200.35 11.48L197.92 7.74C198.95 7.50 200.16 6.90 200.16 5.11C200.16 3.35 198.94 2.21 197.04 2.21L192.60 2.21L192.60 11.48L193.65 11.48ZM193.65 3.21L196.91 3.21C198.23 3.21 199.11 3.93 199.11 5.11C199.11 6.55 197.85 6.93 196.85 6.93L193.65 6.93Z"></path></g></svg>