<svg data-v-fde0c5aa="" xmlns="http://www.w3.org/2000/svg" viewBox="0 0 300 300" class="font"><!----><defs data-v-fde0c5aa=""><!----></defs><rect data-v-fde0c5aa="" fill="#BC577D" x="0" y="0" width="300px" height="300px" class="logo-background-square"></rect><defs data-v-fde0c5aa=""><!----></defs><g data-v-fde0c5aa="" id="942c0797-7285-46a5-af06-66ac0cd0c686" fill="#4B2154" transform="matrix(3.4766117411771416,0,0,3.4766117411771416,37.07964602136676,132.91245259584772)"><path d="M4.16 8.50L4.19 1.05L0.88 1.05C0.88 1.05 0.95 3.78 0.95 5.91C0.95 7.42 0.84 10.79 0.84 10.79L7.67 10.79C7.70 9.77 7.90 8.39 7.90 8.39ZM13.12 2.95C10.28 2.95 8.53 4.48 8.53 6.97C8.53 9.42 10.28 11.05 13.12 11.05C15.99 11.05 17.71 9.42 17.71 6.97C17.71 4.48 15.99 2.95 13.12 2.95ZM11.80 6.92C11.80 5.71 12.11 5.00 13.05 5.00C14.10 5.00 14.42 6.02 14.42 7.04C14.42 8.05 14.18 8.95 13.13 8.95C12.19 8.95 11.80 8.11 11.80 6.92ZM24.56 2.95C23.10 2.95 22.47 4.61 22.26 5.28C22.27 4.89 22.25 3.67 22.26 3.21L19.19 3.21C19.21 3.82 19.22 4.42 19.22 4.94C19.22 7.73 19.11 10.79 19.11 10.79L22.46 10.79C22.39 9.91 22.33 8.64 22.33 7.63C22.33 6.26 22.82 5.98 23.49 5.98C24.07 5.96 24.67 6.20 25.05 6.40L25.68 3.09C25.26 3.00 24.88 2.95 24.56 2.95ZM33.14 8.39C32.48 8.74 31.56 9.13 30.55 9.13C29.54 9.13 29.30 8.39 29.30 7.69C31.12 8.18 33.52 7.50 33.52 5.52C33.52 3.92 32.30 2.95 30.11 2.95C27.68 2.95 25.96 4.24 25.96 7.01C25.96 9.95 27.73 11.05 30.17 11.05C31.70 11.05 33.00 10.74 33.75 10.19ZM30.48 4.75C30.88 4.75 31.11 4.96 31.11 5.46C31.11 6.79 29.88 6.79 29.26 6.65C29.30 5.66 29.64 4.75 30.48 4.75ZM38.26 10.79C38.19 7.87 38.21 7.81 38.21 5.00C38.21 2.93 38.42-0.97 38.42-0.97C38.42-0.97 36.44-0.88 34.87-0.97C34.87-0.97 35.01 2.79 35.01 4.94C35.01 7.73 34.92 10.79 34.92 10.79ZM47.00 8.39C46.34 8.74 45.42 9.13 44.41 9.13C43.40 9.13 43.16 8.39 43.16 7.69C44.98 8.18 47.38 7.50 47.38 5.52C47.38 3.92 46.16 2.95 43.97 2.95C41.54 2.95 39.82 4.24 39.82 7.01C39.82 9.95 41.59 11.05 44.03 11.05C45.56 11.05 46.86 10.74 47.61 10.19ZM44.34 4.75C44.74 4.75 44.97 4.96 44.97 5.46C44.97 6.79 43.74 6.79 43.12 6.65C43.16 5.66 43.50 4.75 44.34 4.75ZM52.29 0.56C52.29-0.42 51.49-1.22 50.51-1.22C49.53-1.22 48.73-0.42 48.73 0.56C48.73 1.55 49.53 2.34 50.51 2.34C51.49 2.34 52.29 1.55 52.29 0.56ZM52.15 10.79C52.08 7.87 52.09 8.48 52.09 7C52.09 5.40 52.26 3.21 52.26 3.21C52.26 3.21 50.33 3.29 48.76 3.21C48.76 3.21 48.90 5.38 48.90 6.93C48.90 8.61 48.80 10.79 48.80 10.79ZM53.96 1.05L54.10 5.22L55.85 5.22L55.94 1.05ZM63.84 3.79C63.84 3.79 62.68 2.95 60.80 2.95C59.02 2.95 57.44 3.79 57.44 5.46C57.44 7.98 60.89 7.77 60.89 8.74C60.89 8.96 60.73 9.14 60.42 9.14C59.30 9.14 57.68 8.04 57.68 8.04L56.92 9.73C56.92 9.73 58.23 11.05 60.86 11.05C62.82 11.05 64.12 9.98 64.12 8.47C64.12 5.91 60.44 6.15 60.44 5.28C60.44 5.04 60.59 4.82 60.93 4.82C61.81 4.82 63.25 5.54 63.25 5.54Z"></path></g><!----><!----></svg>